<svg width="54" height="54" viewBox="0 0 54 54" fill="none" xmlns="http://www.w3.org/2000/svg">
<path d="M26.9916 44.533C26.2407 44.533 25.4813 44.4824 24.7219 44.3895C16.951 43.4108 10.5891 37.0574 9.61037 29.278C8.9185 23.8105 10.741 18.4695 14.5969 14.6052C18.4613 10.7408 23.8107 8.92673 29.2697 9.61861C37.0407 10.5974 43.4026 16.9508 44.3813 24.7302C45.0732 30.1977 43.2507 35.5386 39.3947 39.403C36.0704 42.7189 31.6491 44.533 26.9916 44.533ZM27.0085 10.302C22.5704 10.302 18.3601 12.0233 15.196 15.1958C11.5172 18.8745 9.78756 23.9708 10.4457 29.1767C11.3822 36.5849 17.4319 42.6345 24.8316 43.5627C30.0376 44.2208 35.1338 42.4911 38.8126 38.8124C42.4913 35.1336 44.221 30.0374 43.5629 24.8314C42.6263 17.4233 36.5766 11.3736 29.1769 10.4455C28.4513 10.3442 27.7257 10.302 27.0085 10.302Z" fill="white"/>
<path d="M21.5155 22.8571C21.1864 22.8571 20.8405 22.8149 20.503 22.7305L14.8414 21.2962C14.6305 21.2455 14.4617 21.1021 14.3689 20.8996C14.2846 20.7055 14.2846 20.4777 14.3858 20.2921C16.5374 16.1915 20.773 13.1118 24.9327 12.6224C25.1267 12.5971 25.3208 12.6562 25.4727 12.7912C25.6246 12.9177 25.7089 13.1118 25.7174 13.3059L25.8524 18.3515C25.8692 18.883 25.8017 19.3302 25.6414 19.7184C25.1352 20.984 24.2155 21.9627 22.9752 22.5449C22.5364 22.7474 22.0386 22.8571 21.5155 22.8571ZM15.2042 20.5284L20.7139 21.9205C21.4058 22.0977 22.0808 22.0471 22.6292 21.794C23.6755 21.2962 24.4517 20.4777 24.8821 19.4062C24.9917 19.1277 25.0424 18.7902 25.0339 18.3684L24.8989 13.4577C21.0852 13.964 17.2292 16.7821 15.2042 20.5284Z" fill="white"/>
<path d="M16.6042 37.5722C16.4101 37.5722 16.2245 37.4878 16.0895 37.3444C12.976 33.9187 11.5248 28.8816 12.4867 24.8147C12.5289 24.6291 12.6554 24.4603 12.8242 24.3675C13.0014 24.2662 13.2039 24.2494 13.3895 24.3169L18.182 25.9116C18.6882 26.0803 19.0848 26.2997 19.397 26.5781C20.4095 27.4894 21.017 28.6875 21.1435 30.0544C21.2195 30.8475 20.9748 31.6912 20.4685 32.4422L17.1864 37.2769C17.0682 37.4541 16.8657 37.5722 16.6548 37.5806C16.6379 37.5722 16.621 37.5722 16.6042 37.5722ZM13.2629 25.1437C12.436 28.89 13.7607 33.48 16.5957 36.6609L19.7851 31.9612C20.1817 31.3706 20.3757 30.7209 20.3167 30.1219C20.207 28.9659 19.7007 27.9534 18.8401 27.1941C18.6123 26.9916 18.317 26.8312 17.9204 26.6962L13.2629 25.1437Z" fill="white"/>
<path d="M27.262 41.8923C24.6042 41.8923 22.0054 41.2088 19.9804 39.8842C19.8201 39.7745 19.7104 39.6057 19.6767 39.4117C19.6429 39.2176 19.6936 39.0151 19.8201 38.8632L22.9589 34.906C23.2879 34.4842 23.6339 34.1888 23.9967 33.9948C25.1948 33.3535 26.5279 33.1932 27.8526 33.5392C28.6204 33.7417 29.3376 34.2563 29.8692 34.9904L33.2864 39.7323C33.4129 39.9095 33.4551 40.1288 33.3961 40.3398C33.337 40.5507 33.1936 40.711 32.9911 40.7954C31.177 41.5295 29.2026 41.8923 27.262 41.8923ZM20.5542 39.2682C23.7942 41.327 28.5614 41.6476 32.5186 40.0782L29.1942 35.4713C28.7808 34.8976 28.2239 34.4926 27.6417 34.3407C26.5195 34.0454 25.3973 34.1804 24.3848 34.7204C24.1233 34.8638 23.8617 35.0917 23.6001 35.4207L20.5542 39.2682Z" fill="white"/>
<path d="M36.2898 38.1376C36.2476 38.1376 36.2054 38.1376 36.1548 38.1207C35.9607 38.0869 35.792 37.9688 35.6823 37.8001L33.0413 33.4969C32.7629 33.0413 32.5942 32.6194 32.5351 32.206C32.341 30.856 32.6532 29.5482 33.4295 28.426C33.8851 27.7679 34.6107 27.2785 35.4798 27.0338L41.0992 25.4391C41.3101 25.3801 41.5295 25.4222 41.7067 25.5488C41.8838 25.6754 41.9851 25.8694 41.9935 26.0888C42.1792 30.7126 40.0529 35.5051 36.6948 38.0026C36.5851 38.0954 36.4417 38.1376 36.2898 38.1376ZM41.1835 26.2829L35.716 27.8269C35.0326 28.021 34.4673 28.4007 34.1213 28.8985C33.4632 29.8519 33.2017 30.9572 33.362 32.0879C33.4042 32.3832 33.5307 32.7038 33.7501 33.0582L36.3235 37.2432C39.3695 34.9144 41.3017 30.5438 41.1835 26.2829Z" fill="white"/>
<path d="M34.3658 23.6335C34.1633 23.6335 33.9777 23.6167 33.7921 23.5745C32.459 23.296 31.3368 22.562 30.5436 21.4398C30.0796 20.7901 29.8686 19.9379 29.9361 19.0351L30.3665 13.2048C30.3833 12.9854 30.493 12.7913 30.6786 12.6732C30.8558 12.5551 31.0752 12.5213 31.2777 12.5888C35.6905 13.9979 39.4621 17.6345 40.6686 21.6423C40.7277 21.8279 40.7024 22.0304 40.6011 22.1992C40.4999 22.3679 40.3311 22.4945 40.1371 22.5282L35.1927 23.5407C34.889 23.5998 34.619 23.6335 34.3658 23.6335ZM31.1765 13.4326L30.763 19.1026C30.7124 19.8113 30.8727 20.4695 31.2271 20.9673C31.8936 21.9123 32.8471 22.5367 33.9693 22.7645C34.2646 22.8235 34.6105 22.8151 35.0155 22.7307L39.8249 21.7435C38.669 18.0901 35.218 14.7742 31.1765 13.4326Z" fill="white"/>
<path d="M27 31.3373C24.6121 31.3373 22.6631 29.3883 22.6631 27.0004C22.6631 24.6126 24.6121 22.6636 27 22.6636C29.3878 22.6636 31.3368 24.6126 31.3368 27.0004C31.3368 29.3883 29.3878 31.3373 27 31.3373ZM27 23.4904C25.0678 23.4904 23.49 25.0598 23.49 27.0004C23.49 28.9411 25.0593 30.502 27 30.502C28.9406 30.502 30.51 28.9326 30.51 27.0004C30.51 25.0683 28.9321 23.4904 27 23.4904Z" fill="white"/>
<path d="M31.0669 54H22.9247C22.6969 54 22.5112 53.8144 22.5112 53.5866V51.705C21.1528 51.4603 19.8197 51.1059 18.5287 50.6419L17.5922 52.2619C17.4741 52.4559 17.2209 52.5319 17.0269 52.4137L9.97312 48.3469C9.77063 48.2287 9.70312 47.9756 9.82125 47.7816L10.7494 46.1784C9.69469 45.2841 8.71594 44.3053 7.82156 43.2506L6.21844 44.1787C6.12563 44.2294 6.0075 44.2463 5.90625 44.2209C5.79656 44.1956 5.71219 44.1197 5.65312 44.0269L1.58625 36.9731C1.52719 36.8803 1.51875 36.7622 1.54406 36.6609C1.56938 36.5513 1.64531 36.4669 1.73812 36.4078L3.35812 35.4713C2.89406 34.1803 2.53969 32.8472 2.295 31.4888H0.413438C0.185625 31.4888 0 31.3031 0 31.0669V22.9247C0 22.6969 0.185625 22.5112 0.413438 22.5112H2.295C2.53969 21.1613 2.89406 19.8197 3.35812 18.5287L1.73812 17.5922C1.64531 17.5416 1.56938 17.4487 1.54406 17.3391C1.51875 17.2294 1.52719 17.1197 1.58625 17.0269L5.65312 9.97312C5.71219 9.88031 5.79656 9.80437 5.90625 9.77906C6.01594 9.75375 6.12563 9.76219 6.21844 9.82125L7.82156 10.7494C8.71594 9.69469 9.69469 8.71594 10.7494 7.82156L9.82125 6.21844C9.70312 6.01594 9.77063 5.76281 9.97312 5.65312L17.0269 1.58625C17.2209 1.46812 17.4825 1.53562 17.5922 1.73812L18.5287 3.35812C19.8197 2.89406 21.1613 2.53969 22.5112 2.295V0.413438C22.5112 0.185625 22.6969 0 22.9331 0H31.0753C31.3031 0 31.4888 0.185625 31.4888 0.413438V2.295C32.8387 2.53969 34.1803 2.89406 35.4713 3.35812L36.4078 1.73812C36.5259 1.53562 36.7791 1.46812 36.9731 1.58625L44.0269 5.65312C44.2294 5.77125 44.2969 6.02437 44.1787 6.21844L43.2506 7.82156C44.3053 8.71594 45.2841 9.69469 46.1784 10.7494L47.7816 9.82125C47.8744 9.76219 47.9925 9.75375 48.0938 9.77906C48.2034 9.80437 48.2878 9.88031 48.3469 9.97312L52.4137 17.0269C52.4728 17.1197 52.4812 17.2378 52.4559 17.3391C52.4306 17.4487 52.3547 17.5331 52.2619 17.5922L50.6419 18.5287C51.1059 19.8197 51.4603 21.1613 51.705 22.5112H53.5866C53.8144 22.5112 54 22.6969 54 22.9247V31.0669C54 31.2947 53.8144 31.4803 53.5866 31.4803H51.705C51.4603 32.8388 51.1059 34.1719 50.6419 35.4628L52.2619 36.3994C52.3547 36.45 52.4306 36.5428 52.4559 36.6525C52.4812 36.7622 52.4728 36.8719 52.4137 36.9647L48.3469 44.0184C48.2878 44.1112 48.2034 44.1872 48.0938 44.2125C47.9841 44.2378 47.8744 44.2294 47.7816 44.1703L46.1784 43.2422C45.2841 44.2884 44.3053 45.2756 43.2506 46.17L44.1787 47.7731C44.2969 47.9756 44.2294 48.2288 44.0269 48.3384L36.9731 52.4053C36.7706 52.5234 36.5175 52.4475 36.4078 52.2534L35.4713 50.6334C34.1803 51.0975 32.8472 51.4519 31.4888 51.6966V53.5781C31.4888 53.8144 31.3031 54 31.0669 54ZM23.3466 53.1731H30.6534V51.3591C30.6534 51.1566 30.7969 50.9794 30.9994 50.9456C32.535 50.6925 34.0538 50.2875 35.505 49.7391C35.6906 49.6631 35.91 49.7475 36.0112 49.9162L36.9141 51.4856L43.2422 47.8322L42.3478 46.2881C42.2466 46.1109 42.2887 45.8916 42.4406 45.7566C43.6472 44.7609 44.7609 43.6472 45.7481 42.4491C45.8747 42.2972 46.1025 42.255 46.2797 42.3563L47.8237 43.2506L51.4772 36.9225L49.9078 36.0197C49.7306 35.9184 49.6547 35.7075 49.7306 35.5134C50.2706 34.0622 50.6756 32.5434 50.9372 31.0078C50.9709 30.8053 51.1397 30.6619 51.3506 30.6619H53.1647V23.355H51.3506C51.1481 23.355 50.9709 23.2116 50.9372 23.0091C50.6841 21.4734 50.2791 19.9547 49.7306 18.5034C49.6631 18.3094 49.7391 18.0984 49.9078 17.9972L51.4772 17.0944L47.8237 10.7663L46.2797 11.6606C46.1025 11.7619 45.8831 11.7197 45.7481 11.5678C44.7609 10.3612 43.6472 9.25594 42.4406 8.26031C42.2803 8.13375 42.2466 7.90594 42.3478 7.72875L43.2422 6.18469L36.9141 2.53125L36.0112 4.10063C35.91 4.27781 35.6991 4.35375 35.505 4.28625C34.0453 3.73781 32.535 3.33281 30.9994 3.07969C30.7969 3.04594 30.6534 2.86875 30.6534 2.66625V0.826875H23.3466V2.64094C23.3466 2.84344 23.2031 3.02062 23.0006 3.05437C21.465 3.3075 19.9463 3.7125 18.495 4.26094C18.3009 4.32844 18.09 4.2525 17.9888 4.07531L17.0859 2.50594L10.7578 6.15938L11.6522 7.70344C11.7534 7.88063 11.7113 8.1 11.5594 8.235C10.3528 9.23063 9.2475 10.3359 8.25187 11.5425C8.12531 11.6944 7.8975 11.745 7.72031 11.6353L6.17625 10.7409L2.52281 17.0691L4.09219 17.9719C4.26937 18.0731 4.34531 18.2841 4.26937 18.4781C3.72094 19.9294 3.31594 21.4481 3.06281 22.9837C3.02906 23.1863 2.86031 23.3297 2.64938 23.3297H0.826875V30.6366H2.64094C2.84344 30.6366 3.02062 30.78 3.05437 30.9825C3.3075 32.5181 3.7125 34.0369 4.26094 35.4881C4.32844 35.6822 4.2525 35.8931 4.08375 35.9944L2.51437 36.8972L6.16781 43.2253L7.71188 42.3309C7.88906 42.2297 8.10844 42.2719 8.24344 42.4237C9.23906 43.6303 10.3528 44.7441 11.5509 45.7313C11.7112 45.8578 11.745 46.0856 11.6438 46.2628L10.7494 47.8069L17.0775 51.4603L17.9803 49.8909C18.0816 49.7138 18.2925 49.6378 18.4866 49.7137C19.9378 50.2537 21.4566 50.6587 22.9922 50.9203C23.1947 50.9541 23.3381 51.1312 23.3381 51.3338V53.1731H23.3466Z" fill="white"/>
</svg>
