<svg width="43" height="48" viewBox="0 0 43 48" fill="none" xmlns="http://www.w3.org/2000/svg">
<path d="M40.0337 20.4856H39.0255C38.7883 13.0363 34.1029 6.60826 27.1046 4.20526L26.9267 2.94368C26.6895 1.26158 25.2068 0 23.5462 0H19.5132C17.8526 0 16.3699 1.26158 16.1327 2.94368L15.9548 4.20526C8.95645 6.60826 4.27114 13.0363 4.03391 20.4255H3.02567C1.36505 20.4255 0.000976562 21.8073 0.000976562 23.4894C0.000976562 24.811 0.831285 25.8924 1.95813 26.373V30.398C1.95813 31.239 2.55121 31.8999 3.32221 32.0801L6.99929 32.6809C7.29583 33.7021 7.71099 34.6633 8.18545 35.5044L5.99106 38.5682C5.5166 39.229 5.57591 40.1302 6.16899 40.7309L9.19368 43.7347C9.78676 44.3354 10.6764 44.3955 11.3288 43.9149L14.3535 41.6921C15.2431 42.1727 16.1327 42.5932 17.1409 42.8936L17.734 46.6183C17.8526 47.4593 18.5643 48 19.3946 48H23.6055C24.4358 48 25.0882 47.3992 25.2661 46.6183L25.8592 42.8936C26.8674 42.5932 27.757 42.1727 28.6466 41.6921L31.6713 43.9149C32.3237 44.3955 33.2133 44.3354 33.8064 43.7347L36.8311 40.6708C37.4242 40.0701 37.4835 39.169 37.009 38.5081L34.8146 35.4443C35.2891 34.5432 35.7043 33.582 35.9415 32.6208L39.6186 32.02C40.4489 31.8999 41.042 31.179 41.042 30.3379V26.3129C42.1688 25.8924 42.9991 24.7509 42.9991 23.4293C43.0584 21.8673 41.6943 20.4856 40.0337 20.4856ZM15.7768 5.52691L14.3535 15.0188C14.2942 15.3191 14.5314 15.6195 14.8279 15.6796C15.1245 15.7397 15.421 15.4994 15.4803 15.199L17.2595 3.1239C17.4375 1.98248 18.3864 1.14143 19.5132 1.14143H23.5462C24.673 1.14143 25.6219 1.98248 25.7999 3.1239L27.5791 15.199C27.6384 15.4994 27.8756 15.6796 28.1129 15.6796H28.1722C28.4687 15.6195 28.7059 15.3191 28.6466 15.0188L27.2826 5.52691C33.5099 7.86984 37.6614 13.7572 37.8393 20.4856H5.16075C5.39798 13.7572 9.54953 7.86984 15.7768 5.52691ZM39.9151 30.398C39.9151 30.6383 39.7372 30.8786 39.5 30.9387L35.467 31.5995C35.2298 31.6596 35.0519 31.7797 34.9926 32.02C34.696 33.1614 34.2216 34.2428 33.6878 35.2641C33.5692 35.4443 33.5692 35.6846 33.7471 35.8648L36.1194 39.229C36.2973 39.4093 36.238 39.7096 36.0601 39.8899L33.0354 42.9537C32.8575 43.1339 32.5609 43.1339 32.383 43.0138L29.0618 40.5507C28.8839 40.4305 28.6466 40.4305 28.4687 40.4906C27.4605 41.0914 26.3929 41.5119 25.2661 41.8123C25.0289 41.8723 24.9102 42.0526 24.8509 42.2929L24.1985 46.378C24.1392 46.6183 23.9613 46.7985 23.6648 46.7985H19.4539C19.2167 46.7985 18.9795 46.6183 18.9202 46.378L18.2678 42.2929C18.2085 42.0526 18.0898 41.8723 17.8526 41.8123C16.6665 41.5119 15.5989 41.0313 14.65 40.4906C14.4721 40.3705 14.2348 40.3705 14.0569 40.4906L10.7357 42.8936C10.5578 43.0138 10.2612 43.0138 10.0833 42.8335L7.0586 39.8298C6.88068 39.6496 6.88068 39.3492 6.99929 39.169L9.43091 35.8048C9.54953 35.6245 9.54953 35.3842 9.49022 35.204C8.89714 34.2428 8.48199 33.1014 8.18545 31.9599C8.12614 31.7196 7.94822 31.5995 7.71099 31.5394L3.67806 30.8786C3.44083 30.8185 3.2629 30.6383 3.2629 30.3379V26.4931H11.566C11.4474 27.0338 11.3881 27.6345 11.3881 28.1752C11.3881 33.9424 16.0141 38.5682 21.6483 38.5682C27.2826 38.5682 31.9086 33.8824 31.9086 28.1752C31.9086 27.5745 31.8492 27.0338 31.7306 26.4931H39.9151V30.398ZM12.3963 28.2954C12.3963 27.6946 12.4556 27.1539 12.5742 26.6133H30.4852C30.6038 27.1539 30.6631 27.7547 30.6631 28.2954C30.6631 33.4017 26.5709 37.5469 21.5297 37.5469C16.4885 37.5469 12.3963 33.4017 12.3963 28.2954ZM40.0337 25.4118H3.02567C2.01744 25.4118 1.12782 24.5707 1.12782 23.4894C1.12782 22.4681 1.95813 21.567 3.02567 21.567H39.9744C40.9826 21.567 41.8723 22.408 41.8723 23.4894C41.8723 24.5707 41.042 25.4118 40.0337 25.4118Z" fill="white"/>
</svg>
