<svg width="44" height="44" viewBox="0 0 44 44" fill="none" xmlns="http://www.w3.org/2000/svg">
<path d="M43.3341 39.3095H40.6675V36.6183C40.6675 36.2515 40.3696 35.9519 40.0011 35.9519H37.3346V13.6617H40.0011C40.3687 13.6617 40.6675 13.362 40.6675 12.9944V10.3031H43.3341C43.6513 10.3031 43.9253 10.0794 43.9877 9.76868C44.0509 9.45704 43.8841 9.14443 43.5926 9.02254L22.2592 0.0522329C22.0942 -0.017411 21.9072 -0.017411 21.7422 0.0522329L0.409765 9.02254C0.117371 9.14539 -0.0485232 9.45793 0.0147269 9.76868C0.0779769 10.0794 0.350228 10.3031 0.667372 10.3031H3.33391V12.9944C3.33391 13.3611 3.63187 13.6617 4.00127 13.6617H6.66781V35.9519H4.00127C3.63187 35.9519 3.33391 36.2506 3.33391 36.6183V39.3095H0.667372C0.299765 39.3095 0.000976562 39.6083 0.000976562 39.9759V43.3327C0.000976562 43.7012 0.298871 44 0.667372 44H43.3331C43.7026 44 44.0005 43.7021 44.0005 43.3327V39.9759C44.0014 39.6083 43.7026 39.3095 43.3341 39.3095ZM22.0016 1.38963L40.0295 8.97125H40.0011H4.00216H3.97377L22.0016 1.38963ZM4.66766 10.304H39.3338V12.3289H36.6672H7.3342H4.66766V10.304ZM8.00156 13.6617H36.0008V35.9519H32.0006V20.994C32.0006 18.7894 30.2067 16.9947 28.0003 16.9947C25.7939 16.9947 24 18.7894 24 20.994V35.9519H19.9997V20.994C19.9997 18.7894 18.2058 16.9947 15.9994 16.9947C13.7949 16.9947 11.9991 18.7894 11.9991 20.994V35.9519H8.0006V13.6617H8.00156ZM25.3337 35.9519V20.994C25.3337 19.5237 26.5299 18.3283 28.0003 18.3283C29.4706 18.3283 30.6668 19.5246 30.6668 20.994V35.9519H25.3337ZM13.3337 35.9519V20.994C13.3337 19.5237 14.5299 18.3283 16.0003 18.3283C17.4715 18.3283 18.6668 19.5246 18.6668 20.994V35.9519H13.3337ZM4.66766 37.2855H7.3342H12.6674H19.3342H24.6673H31.3323H36.6654H39.3319V39.3095H4.66581V37.2855H4.66766ZM42.6677 42.6663H1.33473V40.6423H4.00127H40.0002H42.6667V42.6663H42.6677Z" fill="white"/>
</svg>
