<svg width="36" height="37" viewBox="0 0 36 37" fill="none" xmlns="http://www.w3.org/2000/svg">
<path d="M30.4559 36.9999H4.88058C3.43255 36.9999 2.06884 36.3631 1.1393 35.2527C0.209951 34.1423 -0.177212 32.6881 0.077659 31.2626L3.55572 11.8046C3.97202 9.47503 5.99195 7.78418 8.35863 7.78418H26.9778C29.3445 7.78418 31.3644 9.47503 31.7807 11.8046L35.2588 31.2626C35.5137 32.6881 35.1265 34.1423 34.1972 35.2527C33.2676 36.3631 31.9039 36.9999 30.4559 36.9999ZM8.35863 8.97772C6.57104 8.97772 5.04512 10.2548 4.73061 12.0144L1.25255 31.4724C1.06004 32.5494 1.3524 33.6478 2.05466 34.4866C2.75672 35.3254 3.78669 35.8064 4.88058 35.8064H30.4559C31.5498 35.8064 32.5797 35.3254 33.2818 34.4866C33.9841 33.6478 34.2764 32.5494 34.0839 31.4724L30.6058 12.0144C30.2913 10.2548 28.7654 8.97772 26.9778 8.97772H8.35863Z" fill="white"/>
<path d="M24.7149 14.549C24.3853 14.549 24.1182 14.2817 24.1182 13.9522V5.6565C24.1182 3.1956 22.1161 1.19354 19.6552 1.19354H15.6814C13.2205 1.19354 11.2184 3.1956 11.2184 5.6565V13.9522C11.2184 14.2817 10.9513 14.549 10.6217 14.549C10.292 14.549 10.0249 14.2817 10.0249 13.9522V5.6565C10.0249 2.53744 12.5623 0 15.6814 0H19.6552C22.7743 0 25.3117 2.53744 25.3117 5.6565V13.9522C25.3117 14.2817 25.0446 14.549 24.7149 14.549Z" fill="white"/>
</svg>
