<svg width="42" height="42" viewBox="0 0 42 42" fill="none" xmlns="http://www.w3.org/2000/svg">
<path d="M37.5766 16.4605L40.4437 16.9981C41.3466 17.1674 42.001 17.9558 42.001 18.8745V23.1255C42.001 24.0442 41.3466 24.8326 40.4437 25.0019L37.1798 25.6139C36.8343 25.6787 36.5018 25.4512 36.4371 25.1057C36.3723 24.7603 36.5998 24.4278 36.9453 24.363L40.2091 23.751C40.5101 23.6946 40.7282 23.4318 40.7282 23.1255V18.8745C40.7282 18.5682 40.5101 18.3054 40.2091 18.249L36.9453 17.637C36.7003 17.5911 36.5047 17.4064 36.4448 17.1644C36.0626 15.6204 35.4508 14.1489 34.6327 12.7931C34.504 12.5797 34.5116 12.3107 34.6524 12.105L36.5285 9.36302C36.7014 9.11029 36.6698 8.77024 36.4533 8.5537L33.4473 5.54771C33.2307 5.33118 32.8907 5.29958 32.638 5.4725L29.896 7.34859C29.6902 7.48935 29.4213 7.49703 29.2079 7.36825C27.8521 6.55019 26.3806 5.93834 24.8366 5.55618C24.5946 5.4963 24.4099 5.3007 24.364 5.05574L23.752 1.79181C23.6955 1.49083 23.4328 1.27273 23.1265 1.27273H18.8754C18.5692 1.27273 18.3064 1.49083 18.25 1.79181L17.638 5.05574C17.592 5.3007 17.4073 5.4963 17.1654 5.55618C15.6213 5.93834 14.1498 6.55019 12.7941 7.36825C12.5807 7.49703 12.3117 7.48935 12.106 7.34859L9.364 5.4725C9.11127 5.29958 8.77121 5.33118 8.55468 5.54771L5.54869 8.5537C5.33215 8.77024 5.30057 9.11029 5.47349 9.36302L7.34957 12.105C7.49033 12.3107 7.498 12.5797 7.36922 12.7931C6.55117 14.1489 5.93932 15.6204 5.55716 17.1644C5.49728 17.4064 5.30166 17.5911 5.0567 17.637L1.79281 18.249C1.49183 18.3054 1.2737 18.5682 1.2737 18.8745V23.1255C1.2737 23.4318 1.49183 23.6946 1.79281 23.751L5.0567 24.363C5.30166 24.4089 5.49728 24.5936 5.55716 24.8356C5.93932 26.3796 6.55117 27.8511 7.36922 29.2069C7.498 29.4203 7.49033 29.6893 7.34957 29.895L5.47349 32.637C5.30057 32.8897 5.33215 33.2298 5.54869 33.4463L8.55468 36.4523C8.77121 36.6688 9.11127 36.7004 9.364 36.5275L12.106 34.6514C12.3117 34.5107 12.5807 34.503 12.7941 34.6318C14.1498 35.4498 15.6213 36.0617 17.1654 36.4438C17.4073 36.5037 17.592 36.6993 17.638 36.9443L18.25 40.2082C18.3064 40.5092 18.5692 40.7273 18.8754 40.7273H23.1265C23.4328 40.7273 23.6955 40.5092 23.752 40.2082L24.364 36.9443C24.4288 36.5988 24.7613 36.3713 25.1067 36.4361C25.4521 36.5008 25.6797 36.8334 25.6149 37.1788L25.0029 40.4427C24.8336 41.3457 24.0452 42 23.1265 42H18.8754C17.9567 42 17.1683 41.3457 16.999 40.4427L16.4614 37.5756C15.0708 37.1956 13.7382 36.6419 12.4914 35.9298L10.0827 37.5779C9.32451 38.0967 8.30435 38.0018 7.65474 37.3522L4.64875 34.3463C3.99915 33.6966 3.90432 32.6765 4.42309 31.9183L6.07117 29.5096C5.35905 28.2628 4.80539 26.9302 4.42538 25.5395L1.55825 25.0019C0.655302 24.8326 0.000976562 24.0442 0.000976562 23.1255V18.8745C0.000976562 17.9558 0.655302 17.1674 1.55825 16.9981L4.42538 16.4605C4.80539 15.0698 5.35905 13.7372 6.07117 12.4904L4.42309 10.0817C3.90432 9.32351 3.99915 8.30335 4.64875 7.65374L7.65474 4.64778C8.30435 3.99817 9.32451 3.90335 10.0827 4.42211L12.4914 6.07018C13.7382 5.35805 15.0708 4.80441 16.4614 4.42441L16.999 1.55727C17.1683 0.654325 17.9567 0 18.8754 0H23.1265C24.0452 0 24.8336 0.654325 25.0029 1.55727L25.5405 4.42441C26.9311 4.80441 28.2638 5.35805 29.5106 6.07018L31.9193 4.42211C32.6774 3.90335 33.6976 3.99817 34.3472 4.64778L37.3532 7.65374C38.0028 8.30335 38.0976 9.32351 37.5789 10.0817L35.9308 12.4904C36.6429 13.7372 37.1966 15.0698 37.5766 16.4605ZM35.001 40.4091C34.4738 40.4091 34.0464 39.9817 34.0464 39.4545C34.0464 38.9274 34.4738 38.5 35.001 38.5C35.5282 38.5 35.9555 38.9274 35.9555 39.4545C35.9555 39.9817 35.5282 40.4091 35.001 40.4091ZM38.5368 35.8547C38.7853 36.1032 38.7853 36.5062 38.5368 36.7547C38.2883 37.0032 37.8854 37.0032 37.6369 36.7547C36.1458 35.2636 33.7283 35.2636 32.2372 36.7547C31.9886 37.0032 31.5857 37.0032 31.3372 36.7547C31.0887 36.5062 31.0887 36.1032 31.3372 35.8547C33.3253 33.8666 36.5487 33.8666 38.5368 35.8547ZM41.6867 32.7049C41.9352 32.9534 41.9352 33.3563 41.6867 33.6048C41.4382 33.8534 41.0352 33.8534 40.7867 33.6048C37.556 30.3741 32.318 30.3741 29.0873 33.6048C28.8388 33.8534 28.4359 33.8534 28.1874 33.6048C27.9389 33.3563 27.9389 32.9534 28.1874 32.7049C31.9151 28.9772 37.9589 28.9772 41.6867 32.7049ZM21.001 29.2727C16.4321 29.2727 12.7282 25.5689 12.7282 21C12.7282 16.4311 16.4321 12.7273 21.001 12.7273C25.5699 12.7273 29.2737 16.4311 29.2737 21C29.2737 25.5689 25.5699 29.2727 21.001 29.2727ZM21.001 28C24.867 28 28.001 24.866 28.001 21C28.001 17.134 24.867 14 21.001 14C17.135 14 14.001 17.134 14.001 21C14.001 24.866 17.135 28 21.001 28Z" fill="white"/>
</svg>
