<svg width="49" height="49" viewBox="0 0 49 49" fill="none" xmlns="http://www.w3.org/2000/svg">
<path d="M7.79326 46.2193C6.80056 46.2202 5.82993 45.9264 5.00426 45.3753C4.1786 44.8242 3.53502 44.0405 3.15501 43.1234C2.77501 42.2063 2.67567 41.1971 2.86957 40.2236C3.06347 39.25 3.54189 38.3558 4.24426 37.6543L6.16526 35.7333C6.25902 35.6396 6.38618 35.5869 6.51876 35.5869C6.65134 35.5869 6.7785 35.6396 6.87226 35.7333L13.2633 42.1243C13.357 42.2181 13.4097 42.3452 13.4097 42.4778C13.4097 42.6104 13.357 42.7375 13.2633 42.8313L11.3423 44.7523C10.8766 45.2187 10.3233 45.5884 9.71422 45.8401C9.10515 46.0919 8.45231 46.2207 7.79326 46.2193ZM6.51926 36.7943L4.95126 38.3613C4.19751 39.1151 3.77406 40.1374 3.77406 41.2033C3.77406 42.2693 4.19751 43.2916 4.95126 44.0453C5.705 44.7991 6.7273 45.2225 7.79326 45.2225C8.85922 45.2225 9.88151 44.7991 10.6353 44.0453L12.2023 42.4773L6.51926 36.7943Z" fill="white"/>
<path d="M14.0421 44.113C13.9098 44.113 13.7828 44.0605 13.6891 43.967L5.03214 35.311C4.9384 35.2172 4.88574 35.0901 4.88574 34.9575C4.88574 34.8249 4.9384 34.6978 5.03214 34.604L22.5441 17.093C22.6396 17.0026 22.7661 16.9521 22.8976 16.9521C23.0292 16.9521 23.1557 17.0026 23.2511 17.093L31.9061 25.749C31.9999 25.8428 32.0525 25.9699 32.0525 26.1025C32.0525 26.2351 31.9999 26.3622 31.9061 26.456L14.3931 43.967C14.2999 44.06 14.1738 44.1125 14.0421 44.113ZM6.09314 34.958L14.0421 42.906L30.8421 26.106L22.8941 18.157L6.09314 34.958Z" fill="white"/>
<path d="M40.6522 49.0003C40.5864 49.0003 40.5213 48.9873 40.4605 48.9621C40.3998 48.9369 40.3446 48.8999 40.2982 48.8533L27.7812 36.3363C27.6874 36.2426 27.6348 36.1154 27.6348 35.9828C27.6348 35.8502 27.6874 35.7231 27.7812 35.6293L33.5102 29.8993C33.6039 29.8056 33.7311 29.7529 33.8637 29.7529C33.9962 29.7529 34.1234 29.8056 34.2172 29.8993L46.7352 42.4193C46.8289 42.5131 46.8816 42.6402 46.8816 42.7728C46.8816 42.9054 46.8289 43.0326 46.7352 43.1263L41.0052 48.8553C40.9113 48.9484 40.7844 49.0006 40.6522 49.0003ZM28.8412 35.9823L40.6522 47.7933L45.6742 42.7703L33.8642 30.9603L28.8412 35.9823Z" fill="white"/>
<path d="M43.5163 46.1349C43.4505 46.1349 43.3854 46.1219 43.3246 46.0967C43.2639 46.0715 43.2087 46.0345 43.1623 45.9879L30.6463 33.472C30.5985 33.4258 30.5604 33.3707 30.5342 33.3097C30.508 33.2486 30.4942 33.183 30.4937 33.1166C30.4931 33.0503 30.5057 32.9844 30.5309 32.923C30.556 32.8615 30.5932 32.8057 30.6401 32.7588C30.687 32.7118 30.7429 32.6747 30.8043 32.6495C30.8658 32.6244 30.9316 32.6117 30.998 32.6123C31.0644 32.6129 31.13 32.6267 31.191 32.6529C31.252 32.6791 31.3072 32.7172 31.3533 32.7649L43.8693 45.2809C43.9393 45.3508 43.9871 45.4399 44.0065 45.5369C44.0259 45.6339 44.0161 45.7345 43.9783 45.826C43.9405 45.9174 43.8764 45.9955 43.7942 46.0506C43.7119 46.1056 43.6152 46.1349 43.5163 46.1349Z" fill="white"/>
<path d="M34.0702 42.4188C33.9712 42.419 33.8744 42.3897 33.792 42.3348C33.7096 42.2799 33.6454 42.2017 33.6074 42.1102C33.5695 42.0188 33.5596 41.9181 33.579 41.821C33.5984 41.7239 33.6461 41.6347 33.7162 41.5648L39.4502 35.8308C39.5445 35.7397 39.6708 35.6893 39.8019 35.6904C39.933 35.6916 40.0584 35.7442 40.1511 35.8369C40.2438 35.9296 40.2964 36.055 40.2976 36.1861C40.2987 36.3172 40.2483 36.4435 40.1572 36.5378L34.4232 42.2758C34.329 42.3682 34.2022 42.4196 34.0702 42.4188Z" fill="white"/>
<path d="M28.1342 36.4821C28.0354 36.4819 27.939 36.4525 27.8569 36.3975C27.7749 36.3426 27.711 36.2646 27.6733 36.1733C27.6355 36.0821 27.6256 35.9817 27.6448 35.8849C27.664 35.7881 27.7114 35.6991 27.7812 35.6291L33.5102 29.8991C33.6045 29.8081 33.7308 29.7577 33.8619 29.7588C33.9929 29.7599 34.1184 29.8125 34.2111 29.9052C34.3038 29.9979 34.3563 30.1233 34.3575 30.2544C34.3586 30.3855 34.3082 30.5118 34.2172 30.6061L28.4932 36.3361C28.446 36.3831 28.39 36.4203 28.3284 36.4453C28.2667 36.4704 28.2007 36.4829 28.1342 36.4821Z" fill="white"/>
<path d="M30.9993 33.6189C30.8669 33.6189 30.74 33.5664 30.6463 33.4729L27.4143 30.2419C27.3232 30.1476 27.2728 30.0213 27.2739 29.8902C27.2751 29.7591 27.3277 29.6337 27.4204 29.541C27.5131 29.4483 27.6385 29.3957 27.7696 29.3946C27.9007 29.3934 28.027 29.4438 28.1213 29.5349L31.3533 32.7659C31.423 32.8359 31.4705 32.925 31.4897 33.0219C31.5088 33.1188 31.4989 33.2193 31.461 33.3105C31.4231 33.4018 31.359 33.4798 31.2769 33.5347C31.1947 33.5896 31.0981 33.6189 30.9993 33.6189Z" fill="white"/>
<path d="M13.0174 21.3655C12.9517 21.3657 12.8866 21.3528 12.8258 21.3278C12.7651 21.3027 12.7099 21.2659 12.6634 21.2195L0.14737 8.70253C0.0536343 8.60877 0.000976562 8.48162 0.000976562 8.34903C0.000976562 8.21645 0.0536343 8.0893 0.14737 7.99553L5.87637 2.26553C5.97013 2.1718 6.09729 2.11914 6.22987 2.11914C6.36245 2.11914 6.48961 2.1718 6.58337 2.26553L19.1004 14.7825C19.1941 14.8763 19.2468 15.0035 19.2468 15.136C19.2468 15.2686 19.1941 15.3958 19.1004 15.4895L13.3704 21.2195C13.2767 21.313 13.1497 21.3655 13.0174 21.3655ZM1.20737 8.34853L13.0174 20.1585L18.0394 15.1365L6.23037 3.32653L1.20737 8.34853Z" fill="white"/>
<path d="M15.8824 18.5016C15.75 18.5013 15.623 18.4484 15.5295 18.3546L3.01145 5.83759C2.92037 5.74329 2.86997 5.61699 2.87111 5.48589C2.87225 5.35479 2.92484 5.22939 3.01754 5.13668C3.11024 5.04398 3.23565 4.99139 3.36675 4.99025C3.49785 4.98911 3.62415 5.03951 3.71845 5.13059L16.2364 17.6476C16.3066 17.7175 16.3543 17.8067 16.3737 17.9038C16.3931 18.0009 16.3832 18.1016 16.3452 18.1931C16.3073 18.2845 16.2431 18.3627 16.1607 18.4176C16.0783 18.4725 15.9815 18.5018 15.8824 18.5016Z" fill="white"/>
<path d="M7.07753 15.4315C6.9786 15.4315 6.88189 15.4021 6.79965 15.3471C6.71742 15.2921 6.65335 15.2139 6.61556 15.1225C6.57776 15.031 6.56794 14.9305 6.58734 14.8334C6.60674 14.7364 6.65448 14.6474 6.72453 14.5775L12.4585 8.84348C12.5528 8.7524 12.6791 8.702 12.8102 8.70314C12.9413 8.70428 13.0667 8.75687 13.1594 8.84957C13.2521 8.94228 13.3047 9.06768 13.3059 9.19878C13.307 9.32988 13.2566 9.45618 13.1655 9.55048L7.43153 15.2845C7.38509 15.3311 7.32992 15.368 7.26918 15.3933C7.20843 15.4185 7.14331 15.4315 7.07753 15.4315Z" fill="white"/>
<path d="M13.0175 21.365C12.9187 21.3649 12.8221 21.3356 12.7399 21.2808C12.6577 21.2259 12.5936 21.1479 12.5558 21.0566C12.5179 20.9653 12.5079 20.8649 12.5271 20.768C12.5462 20.671 12.5937 20.5819 12.6635 20.512L18.3935 14.782C18.4878 14.6909 18.6141 14.6405 18.7452 14.6416C18.8763 14.6428 19.0017 14.6953 19.0944 14.788C19.1871 14.8808 19.2397 15.0062 19.2408 15.1373C19.2419 15.2684 19.1916 15.3947 19.1005 15.489L13.3705 21.219C13.2768 21.3124 13.1498 21.3649 13.0175 21.365Z" fill="white"/>
<path d="M19.1135 21.7312C19.0478 21.7313 18.9827 21.7185 18.922 21.6934C18.8612 21.6684 18.806 21.6316 18.7595 21.5852L15.5295 18.3542C15.4384 18.2599 15.388 18.1336 15.3892 18.0025C15.3903 17.8714 15.4429 17.746 15.5356 17.6533C15.6283 17.5606 15.7537 17.508 15.8848 17.5069C16.0159 17.5057 16.1422 17.5561 16.2365 17.6472L19.4665 20.8782C19.5362 20.9481 19.5837 21.0371 19.6029 21.134C19.6221 21.2308 19.6122 21.3312 19.5744 21.4224C19.5367 21.5136 19.4727 21.5916 19.3907 21.6466C19.3087 21.7015 19.2122 21.731 19.1135 21.7312Z" fill="white"/>
<path d="M27.2265 22.274C27.1276 22.274 27.0311 22.2447 26.9489 22.1898C26.8667 22.1349 26.8026 22.0569 26.7648 21.9657C26.7269 21.8744 26.7169 21.774 26.7361 21.677C26.7552 21.5801 26.8027 21.491 26.8725 21.421L30.4725 17.821C30.5668 17.7299 30.6931 17.6795 30.8242 17.6807C30.9553 17.6818 31.0807 17.7344 31.1734 17.8271C31.2661 17.9198 31.3187 18.0452 31.3198 18.1763C31.3209 18.3074 31.2705 18.4337 31.1795 18.528L27.5795 22.128C27.4858 22.2215 27.3588 22.274 27.2265 22.274Z" fill="white"/>
<path d="M36.1472 21.8671C35.4067 21.8685 34.6733 21.7236 33.9889 21.4408C33.3045 21.158 32.6827 20.7429 32.1592 20.2191L28.7822 16.8411C27.7266 15.7826 27.1338 14.3486 27.1338 12.8536C27.1338 11.3587 27.7266 9.9247 28.7822 8.86614L29.1162 8.53214C29.21 8.4384 29.3371 8.38574 29.4697 8.38574C29.6023 8.38574 29.7295 8.4384 29.8232 8.53214L40.4692 19.1761C40.563 19.2699 40.6156 19.3971 40.6156 19.5296C40.6156 19.6622 40.563 19.7894 40.4692 19.8831L40.1342 20.2181C39.611 20.742 38.9894 21.1573 38.3052 21.4403C37.621 21.7232 36.8876 21.8683 36.1472 21.8671ZM32.8662 19.5111C33.7337 20.3766 34.9081 20.8642 36.1335 20.8676C37.3589 20.871 38.536 20.3899 39.4082 19.5291L29.4702 9.59214C28.6104 10.4647 28.13 11.6415 28.1336 12.8665C28.1372 14.0915 28.6244 15.2656 29.4892 16.1331L32.8662 19.5111Z" fill="white"/>
<path d="M39.9016 13.8796C39.769 13.8796 39.6418 13.8269 39.548 13.7332C39.4543 13.6394 39.4016 13.5122 39.4016 13.3796C39.3963 12.3785 38.9963 11.42 38.2883 10.7122C37.5803 10.0044 36.6217 9.6046 35.6206 9.59961C35.488 9.59961 35.3608 9.54693 35.2671 9.45316C35.1733 9.35939 35.1206 9.23222 35.1206 9.09961C35.1206 8.967 35.1733 8.83982 35.2671 8.74606C35.3608 8.65229 35.488 8.59961 35.6206 8.59961C36.8869 8.60461 38.0999 9.10979 38.9954 10.0051C39.8909 10.9004 40.3963 12.1133 40.4016 13.3796C40.4016 13.5122 40.3489 13.6394 40.2552 13.7332C40.1614 13.8269 40.0342 13.8796 39.9016 13.8796Z" fill="white"/>
<path d="M44.2006 13.8788C44.068 13.8788 43.9408 13.8261 43.8471 13.7324C43.7533 13.6386 43.7006 13.5114 43.7006 13.3788C43.6985 11.2366 42.8465 9.18275 41.3316 7.66808C39.8168 6.1534 37.7628 5.30166 35.6206 5.2998C35.488 5.2998 35.3608 5.24713 35.2671 5.15336C35.1733 5.05959 35.1206 4.93241 35.1206 4.7998C35.1206 4.6672 35.1733 4.54002 35.2671 4.44625C35.3608 4.35248 35.488 4.2998 35.6206 4.2998C38.028 4.30166 40.3363 5.25876 42.0387 6.96097C43.7411 8.66318 44.6985 10.9714 44.7006 13.3788C44.7006 13.5114 44.6479 13.6386 44.5542 13.7324C44.4604 13.8261 44.3332 13.8788 44.2006 13.8788Z" fill="white"/>
<path d="M48.5006 13.879C48.368 13.879 48.2408 13.8263 48.1471 13.7326C48.0533 13.6388 48.0006 13.5116 48.0006 13.379C47.9969 10.0968 46.6914 6.9502 44.3704 4.62946C42.0495 2.30873 38.9028 1.00344 35.6206 1C35.488 1 35.3608 0.947321 35.2671 0.853553C35.1733 0.759785 35.1206 0.632608 35.1206 0.5C35.1206 0.367392 35.1733 0.240215 35.2671 0.146447C35.3608 0.0526785 35.488 0 35.6206 0C39.1674 0.00528939 42.5674 1.41652 45.0755 3.9244C47.5836 6.43227 48.9951 9.8322 49.0006 13.379C49.0006 13.5116 48.9479 13.6388 48.8542 13.7326C48.7604 13.8263 48.6332 13.879 48.5006 13.879Z" fill="white"/>
<path d="M39.9016 13.8796C39.769 13.8796 39.6418 13.8269 39.548 13.7332C39.4543 13.6394 39.4016 13.5122 39.4016 13.3796C39.3963 12.3785 38.9963 11.42 38.2883 10.7122C37.5803 10.0044 36.6217 9.6046 35.6206 9.59961C35.488 9.59961 35.3608 9.54693 35.2671 9.45316C35.1733 9.35939 35.1206 9.23222 35.1206 9.09961C35.1206 8.967 35.1733 8.83982 35.2671 8.74606C35.3608 8.65229 35.488 8.59961 35.6206 8.59961C36.8869 8.60461 38.0999 9.10979 38.9954 10.0051C39.8909 10.9004 40.3963 12.1133 40.4016 13.3796C40.4016 13.5122 40.3489 13.6394 40.2552 13.7332C40.1614 13.8269 40.0342 13.8796 39.9016 13.8796Z" fill="white"/>
<path d="M39.9016 13.8796C39.769 13.8796 39.6418 13.8269 39.548 13.7332C39.4543 13.6394 39.4016 13.5122 39.4016 13.3796C39.3963 12.3785 38.9963 11.42 38.2883 10.7122C37.5803 10.0044 36.6217 9.6046 35.6206 9.59961C35.488 9.59961 35.3608 9.54693 35.2671 9.45316C35.1733 9.35939 35.1206 9.23222 35.1206 9.09961C35.1206 8.967 35.1733 8.83982 35.2671 8.74606C35.3608 8.65229 35.488 8.59961 35.6206 8.59961C36.8869 8.60461 38.0999 9.10979 38.9954 10.0051C39.8909 10.9004 40.3963 12.1133 40.4016 13.3796C40.4016 13.5122 40.3489 13.6394 40.2552 13.7332C40.1614 13.8269 40.0342 13.8796 39.9016 13.8796Z" fill="white"/>
<path d="M21.1162 37.0381C20.9837 37.0378 20.8568 36.9849 20.7632 36.8911L12.1462 28.2741C12.0551 28.1798 12.0047 28.0535 12.0059 27.9224C12.007 27.7913 12.0596 27.6659 12.1523 27.5732C12.245 27.4805 12.3704 27.4279 12.5015 27.4268C12.6326 27.4256 12.7589 27.476 12.8532 27.5671L21.4702 36.1841C21.5403 36.254 21.5881 36.3432 21.6075 36.4403C21.6268 36.5374 21.6169 36.6381 21.579 36.7296C21.5411 36.821 21.4769 36.8992 21.3945 36.9541C21.3121 37.0091 21.2152 37.0383 21.1162 37.0381Z" fill="white"/>
</svg>
