<svg width="43" height="52" viewBox="0 0 43 52" fill="none" xmlns="http://www.w3.org/2000/svg">
<path d="M42.9976 7.00709C42.9976 6.53065 42.6322 6.14476 42.181 6.14476C27.3086 6.14476 22.1582 0.332779 22.1111 0.276486C21.8008 -0.0921619 21.1986 -0.0921619 20.8903 0.276486C20.8413 0.334694 15.7906 6.14476 0.820442 6.14476C0.36927 6.14476 0.00383982 6.53065 0.00383982 7.00709V23.8376C-0.00432673 24.0359 -0.600421 43.8525 21.2397 51.6822C21.3254 51.7124 21.4132 51.7275 21.501 51.7275C21.5888 51.7275 21.6786 51.7124 21.7623 51.6822C43.6023 43.852 43.006 24.0357 42.9982 23.8762L42.9976 7.00709ZM21.5004 49.9532C1.12221 42.4938 1.60407 24.6715 1.63647 23.8762V7.86473C14.0368 7.69227 19.7444 3.61775 21.5004 2.03344C23.2561 3.61582 28.9661 7.69254 41.3644 7.86473V23.9127C41.397 24.6715 41.8788 42.4938 21.5004 49.9532Z" fill="white"/>
<path d="M31.2998 21.2308H25.3858V14.9856C25.3858 14.5092 25.0203 14.1233 24.5692 14.1233H18.4325C17.9813 14.1233 17.6159 14.5092 17.6159 14.9856V21.2308H11.7019C11.2507 21.2308 10.8853 21.6167 10.8853 22.0932V28.5735C10.8853 29.0499 11.2507 29.4358 11.7019 29.4358H17.6159V35.681C17.6159 36.1575 17.9813 36.5434 18.4325 36.5434H24.5692C25.0203 36.5434 25.3858 36.1575 25.3858 35.681V29.4358H31.2998C31.751 29.4358 32.1164 29.0499 32.1164 28.5735V22.0932C32.1164 21.6167 31.751 21.2308 31.2998 21.2308ZM30.4832 27.7112H24.5692C24.118 27.7112 23.7526 28.0971 23.7526 28.5735V34.8187H19.249V28.5735C19.249 28.0971 18.8836 27.7112 18.4324 27.7112H12.5184V22.9554H18.4324C18.8836 22.9554 19.249 22.5695 19.249 22.0931V15.8478H23.7526V22.0931C23.7526 22.5695 24.118 22.9554 24.5692 22.9554H30.4832V27.7112Z" fill="white"/>
</svg>
