<svg width="28" height="27" viewBox="0 0 28 27" fill="none" xmlns="http://www.w3.org/2000/svg">
<path d="M3.89021 0C2.10567 0 0.64502 1.44674 0.64502 3.21429V23.7857C0.64502 25.5533 2.10567 27 3.89021 27H24.6594C26.444 27 27.9046 25.5533 27.9046 23.7857V3.21429C27.9046 1.44674 26.444 0 24.6594 0H3.89021ZM3.89021 1.28571H24.6594C25.7423 1.28571 26.6066 2.14169 26.6066 3.21429V23.7857C26.6066 24.8583 25.7423 25.7143 24.6594 25.7143H3.89021C2.8073 25.7143 1.9431 24.8583 1.9431 23.7857V3.21429C1.9431 2.14169 2.8073 1.28571 3.89021 1.28571ZM7.1354 4.50753C6.42456 4.50753 5.7849 4.71798 5.31125 5.11273C4.8376 5.50747 4.54686 6.09719 4.54686 6.72866C4.54686 7.92899 5.59802 8.86475 6.93512 8.95731C6.93596 8.95773 6.9368 8.95815 6.93766 8.95857C7.00137 8.98008 7.06811 8.99152 7.13541 8.99247C8.61068 8.99247 9.72396 7.96891 9.72396 6.72866C9.72384 6.71735 9.72342 6.70604 9.72269 6.69475C9.65665 5.47318 8.55708 4.50753 7.1354 4.50753ZM7.1354 5.77818C8.03901 5.77818 8.39582 6.17788 8.43475 6.74498C8.42686 7.29543 8.08306 7.72182 7.1354 7.72182C6.23622 7.72182 5.82972 7.26572 5.82972 6.72866C5.82972 6.46013 5.92865 6.25776 6.1365 6.08455C6.34434 5.91133 6.67797 5.77818 7.1354 5.77818ZM5.18829 9.64286C4.82985 9.64289 4.53929 9.93069 4.53925 10.2857V22.5C4.53929 22.855 4.82985 23.1428 5.18829 23.1429H9.08252C9.44096 23.1428 9.73152 22.855 9.73156 22.5V18.7295V10.2857C9.73152 9.93069 9.44096 9.64289 9.08252 9.64286H5.18829ZM11.0296 9.64286C10.6712 9.64289 10.3806 9.93069 10.3806 10.2857V22.5C10.3806 22.855 10.6712 23.1428 11.0296 23.1429H14.9239C15.2823 23.1428 15.5729 22.855 15.5729 22.5V16.0714C15.5729 15.5381 15.7198 15.0075 15.9786 14.6602C16.2373 14.3128 16.5636 14.1043 17.1841 14.1152C17.8239 14.1261 18.1626 14.3432 18.4188 14.684C18.675 15.0248 18.8181 15.5357 18.8181 16.0714V22.5C18.8181 22.855 19.1087 23.1428 19.4671 23.1429H23.3614C23.7198 23.1428 24.0104 22.855 24.0104 22.5V15.5968C24.0104 13.693 23.4411 12.1849 22.4651 11.1646C21.4892 10.1443 20.1319 9.64286 18.6964 9.64286C17.3321 9.64286 16.2939 10.096 15.5729 10.5582V10.2857C15.5729 9.93069 15.2823 9.64289 14.9239 9.64286H11.0296ZM5.83733 10.9286H8.43348V18.7295V21.8571H5.83733V10.9286ZM11.6787 10.9286H14.2748V11.9318C14.2749 12.2082 14.4534 12.4536 14.7181 12.5413C14.9827 12.629 15.2744 12.5393 15.4423 12.3185C15.4423 12.3185 16.4616 10.9286 18.6964 10.9286C19.8344 10.9286 20.8102 11.3031 21.5233 12.0486C22.2363 12.794 22.7123 13.9425 22.7123 15.5968V21.8571H20.1162V16.0714C20.1162 15.3214 19.9347 14.546 19.4608 13.9156C18.9868 13.2852 18.1897 12.8463 17.2069 12.8295C16.219 12.8121 15.409 13.2602 14.934 13.898C14.459 14.5358 14.2748 15.3191 14.2748 16.0714V21.8571H11.6787L11.6787 10.9286Z" fill="#535353"/>
</svg>
