<svg width="16" height="24" viewBox="0 0 16 24" fill="none" xmlns="http://www.w3.org/2000/svg">
<path d="M8.11013 23.4601C8.25446 23.2379 12.7768 16.2755 14.7062 12.0392C15.0445 11.4086 15.5562 9.95298 15.6023 8.48463L15.6023 8.48452C15.662 6.52309 14.9192 4.65116 13.5132 3.21523C12.0568 1.72767 10.0201 0.875 7.92683 0.875C3.69544 0.875 0.250977 4.28457 0.250977 8.47823C0.250977 9.97331 0.812678 11.4164 1.14532 12.0354C3.07625 16.2749 7.59787 23.2359 7.74347 23.46L7.74675 23.4651L7.74706 23.4656L7.82224 23.5804L7.92683 23.7403L8.03143 23.5804L8.10661 23.4656L8.10691 23.4651L8.11013 23.4601ZM7.92615 22.9538C7.0537 21.5982 3.25139 15.6276 1.53042 11.8503L1.53067 11.8502L1.52677 11.8429C1.21291 11.259 0.679616 9.88846 0.679616 8.47823C0.679616 4.52242 3.92897 1.30229 7.92611 1.30229C9.90537 1.30229 11.8299 2.10907 13.2057 3.51354C14.5322 4.86822 15.2296 6.62831 15.1727 8.47154C15.1289 9.86999 14.6395 11.2578 14.323 11.8465L14.3227 11.8463L14.3193 11.8539C12.6007 15.6281 8.79886 21.5986 7.92615 22.9538Z" fill="#535353" stroke="#535353" stroke-width="0.25"/>
<path d="M7.92781 3.81738C5.37434 3.81738 3.29492 5.87493 3.29492 8.40769C3.29492 10.9405 5.37435 12.9976 7.92781 12.9976C10.4813 12.9976 12.5611 10.9401 12.5611 8.40734C12.5611 5.87455 10.4813 3.81738 7.92781 3.81738ZM7.92781 12.5704C5.60896 12.5704 3.72392 10.7016 3.72392 8.40734C3.72392 6.11312 5.60895 4.24468 7.92781 4.24468C10.247 4.24468 12.1321 6.11347 12.1321 8.40769C12.1321 10.7019 10.247 12.5704 7.92781 12.5704Z" fill="#535353" stroke="#535353" stroke-width="0.25"/>
</svg>
