<svg width="21" height="14" viewBox="0 0 21 14" fill="none" xmlns="http://www.w3.org/2000/svg">
<path d="M19.037 0H1.86817C1.03456 0 0.356445 0.686017 0.356445 1.52934V12.4707C0.356445 13.314 1.03456 14 1.86817 14H19.037C19.8706 14 20.5488 13.314 20.5488 12.4707V1.53152C20.5488 0.688202 19.8706 0 19.037 0ZM19.9765 1.53152V12.4728C19.9765 12.6498 19.9246 12.8159 19.8404 12.9579L13.0895 7.00218L19.8404 1.0465C19.9246 1.18851 19.9765 1.35237 19.9765 1.53152ZM19.037 0.578964C19.1688 0.578964 19.2962 0.607365 19.4106 0.657615L11.6555 7.50031C10.9817 8.09457 9.92566 8.09457 9.2497 7.50031L1.49456 0.6598C1.60902 0.60955 1.73427 0.581149 1.86817 0.581149H19.037V0.578964ZM1.0648 12.9579C0.980571 12.8159 0.928741 12.652 0.928741 12.4728V1.53152C0.928741 1.35456 0.980571 1.18851 1.0648 1.0465L7.81572 7.00218L1.0648 12.9579ZM1.86817 13.4254C1.73643 13.4254 1.60902 13.397 1.49456 13.3468L8.2498 7.3867L8.87393 7.93726C9.32312 8.33271 9.88894 8.53152 10.4526 8.53152C11.0163 8.53152 11.5821 8.33271 12.0313 7.93726L12.6554 7.3867L19.4106 13.3468C19.2962 13.397 19.1709 13.4254 19.037 13.4254H1.86817Z" fill="#535353"/>
</svg>
