<svg width="17" height="22" viewBox="0 0 17 22" fill="none" xmlns="http://www.w3.org/2000/svg">
<path d="M16.2619 18.8847L13.3617 15.7177C13.0027 15.3247 12.4726 15.2283 12.0399 15.4753L11.7856 15.6212C11.1699 15.9742 10.2451 16.2071 9.34655 15.3177C8.8402 14.8165 7.84176 13.4942 6.98834 12.0354C6.13729 10.5742 5.4788 9.05891 5.29338 8.37421C4.96532 7.1601 5.63094 6.48481 6.24664 6.13187L6.50101 5.98599C6.93128 5.73893 7.11195 5.2354 6.94792 4.73188L5.63332 0.661316C5.54298 0.383671 5.34092 0.171908 5.06516 0.068379C4.77039 -0.0445614 4.43044 -0.0163263 4.15231 0.143673L2.66416 0.993079C1.60155 1.60013 0.95494 2.26366 0.626883 3.08248C0.336861 3.80718 0.284562 4.65894 0.448591 5.93187C0.726726 8.07303 1.77984 10.6895 3.67211 13.9318C5.56438 17.1742 7.3259 19.3883 9.0589 20.6941C10.0882 21.4706 10.8608 21.8518 11.6406 21.9647C11.7998 21.9882 11.9615 22 12.1231 22C12.853 22 13.6184 21.76 14.4861 21.2635L15.9742 20.4141C16.2524 20.2541 16.4473 19.9765 16.4972 19.6682C16.5448 19.3788 16.4616 19.0988 16.2619 18.8847ZM15.8768 19.5718C15.8578 19.6965 15.7769 19.8094 15.6628 19.8753L14.1747 20.7247C12.223 21.84 11.0938 21.4424 9.44401 20.1977C7.77758 18.9412 6.06835 16.7883 4.21887 13.6189C2.36939 10.4495 1.34005 7.90833 1.0738 5.85187C0.809929 3.81424 1.02626 2.64954 2.97796 1.53425L4.4661 0.684846C4.53504 0.644846 4.61349 0.626022 4.68956 0.626022C4.73948 0.626022 4.79178 0.635434 4.83695 0.651905C4.90351 0.677787 4.99385 0.734257 5.03188 0.854256L6.35124 4.92246C6.40592 5.08952 6.39641 5.32717 6.18959 5.44481L5.93523 5.5907C4.8108 6.23304 4.35437 7.30598 4.68718 8.53421C4.88212 9.25891 5.56438 10.8401 6.44395 12.3459C7.32353 13.8518 8.36475 15.2283 8.902 15.7577C9.8101 16.6565 10.9749 16.8024 12.1017 16.16L12.3561 16.0142C12.5629 15.8965 12.7769 16.0071 12.8957 16.1365L15.796 19.3035C15.8815 19.3977 15.8863 19.5012 15.8768 19.5718Z" fill="#535353"/>
</svg>
