<svg width="49" height="38" viewBox="0 0 49 38" fill="none" xmlns="http://www.w3.org/2000/svg">
<path d="M48.0667 12.8372C48.3142 12.8372 48.5516 12.7374 48.7266 12.5597C48.9017 12.382 49 12.1409 49 11.8896C49 11.6383 48.9017 11.3972 48.7266 11.2195C48.5516 11.0418 48.3142 10.942 48.0667 10.942H42V5.74264H48.0667C48.3142 5.74264 48.5516 5.6428 48.7266 5.46509C48.9017 5.28737 49 5.04634 49 4.79501C49 4.54369 48.9017 4.30265 48.7266 4.12494C48.5516 3.94722 48.3142 3.84738 48.0667 3.84738H42V0.947631C42 0.696304 41.9017 0.45527 41.7266 0.277555C41.5516 0.0998399 41.3142 0 41.0667 0H7.93333C7.6858 0 7.4484 0.0998399 7.27337 0.277555C7.09833 0.45527 7 0.696304 7 0.947631V3.84738H0.933333C0.685798 3.84738 0.448401 3.94722 0.273367 4.12494C0.0983329 4.30265 0 4.54369 0 4.79501C0 5.04634 0.0983329 5.28737 0.273367 5.46509C0.448401 5.6428 0.685798 5.74264 0.933333 5.74264H7V10.9672H0.933333C0.685798 10.9672 0.448401 11.0671 0.273367 11.2448C0.0983329 11.4225 0 11.6636 0 11.9149C0 12.1662 0.0983329 12.4072 0.273367 12.585C0.448401 12.7627 0.685798 12.8625 0.933333 12.8625H7V18.0618H0.933333C0.685798 18.0618 0.448401 18.1617 0.273367 18.3394C0.0983329 18.5171 0 18.7582 0 19.0095C0 19.2608 0.0983329 19.5018 0.273367 19.6796C0.448401 19.8573 0.685798 19.9571 0.933333 19.9571H7V25.1817H0.933333C0.685798 25.1817 0.448401 25.2816 0.273367 25.4593C0.0983329 25.637 0 25.878 0 26.1293C0 26.3807 0.0983329 26.6217 0.273367 26.7994C0.448401 26.9771 0.685798 27.077 0.933333 27.077H7V32.2763H0.933333C0.685798 32.2763 0.448401 32.3761 0.273367 32.5539C0.0983329 32.7316 0 32.9726 0 33.2239C0 33.4753 0.0983329 33.7163 0.273367 33.894C0.448401 34.0717 0.685798 34.1716 0.933333 34.1716H7V37.0524C7 37.3037 7.09833 37.5447 7.27337 37.7224C7.4484 37.9002 7.6858 38 7.93333 38H41.0667C41.3142 38 41.5516 37.9002 41.7266 37.7224C41.9017 37.5447 42 37.3037 42 37.0524V34.1716H48.0667C48.3142 34.1716 48.5516 34.0717 48.7266 33.894C48.9017 33.7163 49 33.4753 49 33.2239C49 32.9726 48.9017 32.7316 48.7266 32.5539C48.5516 32.3761 48.3142 32.2763 48.0667 32.2763H42V27.077H48.0667C48.3142 27.077 48.5516 26.9771 48.7266 26.7994C48.9017 26.6217 49 26.3807 49 26.1293C49 25.878 48.9017 25.637 48.7266 25.4593C48.5516 25.2816 48.3142 25.1817 48.0667 25.1817H42V19.9571H48.0667C48.3142 19.9571 48.5516 19.8573 48.7266 19.6796C48.9017 19.5018 49 19.2608 49 19.0095C49 18.7582 48.9017 18.5171 48.7266 18.3394C48.5516 18.1617 48.3142 18.0618 48.0667 18.0618H42V12.8372H48.0667ZM40.1333 36.1237H8.86667V1.89526H40.1333V36.1237Z" fill="white"/>
</svg>
