<svg width="58" height="58" viewBox="0 0 58 58" fill="none" xmlns="http://www.w3.org/2000/svg">
<g filter="url(#filter0_d_352_747)">
<path d="M53.4907 50.0001H29.0009C28.7191 50.0001 28.4907 49.7717 28.4907 49.4899V40.0506C28.4907 39.8015 28.6706 39.5887 28.9163 39.5474C32.4526 38.9528 35.6938 37.3235 38.2895 34.8358C38.3846 34.7447 38.511 34.6938 38.6426 34.6938H45.3275C45.4628 34.6938 45.5926 34.7475 45.6882 34.8433L53.8514 43.0066C53.9472 43.1023 54.0009 43.232 54.0009 43.3673V49.4898C54.0009 49.7717 53.7726 50.0001 53.4907 50.0001ZM29.5111 48.9797H52.9805V43.5787L45.1161 35.7144H38.846C36.2328 38.1657 33.0174 39.8055 29.5112 40.4772V48.9797H29.5111Z" fill="white"/>
<path d="M25.9402 40.8159C25.94 40.8159 25.9398 40.8159 25.9396 40.8159C20.8971 40.8158 16.1566 38.8522 12.5914 35.2869C12.3921 35.0877 12.3921 34.7647 12.5914 34.5655L38.5668 8.59006C38.6625 8.49435 38.7922 8.44067 38.9275 8.44067C39.0628 8.44067 39.1926 8.49445 39.2882 8.59006C46.6486 15.9505 46.6486 27.9267 39.2882 35.2869C39.1915 35.3835 39.0938 35.4781 38.9956 35.5722C36.2515 38.2022 32.8246 39.9247 29.0856 40.5533C28.0497 40.7276 26.9915 40.8159 25.9402 40.8159ZM13.6787 34.9212C17.0063 38.0681 21.3403 39.7954 25.9397 39.7955H25.9402C26.9349 39.7955 27.9363 39.712 28.9165 39.5471C32.4527 38.9525 35.6939 37.3232 38.2896 34.8355C38.3827 34.7463 38.4753 34.6567 38.5669 34.5653C45.4085 27.7236 45.527 16.6655 38.9224 9.67741L13.6787 34.9212Z" fill="white"/>
<path d="M19.8175 19.3872C17.8482 19.3872 16.2461 17.7851 16.2461 15.8158C16.2461 13.8465 17.8482 12.2444 19.8175 12.2444C21.7868 12.2444 23.389 13.8465 23.389 15.8158C23.389 17.7851 21.7868 19.3872 19.8175 19.3872ZM19.8175 13.2648C18.4109 13.2648 17.2665 14.4092 17.2665 15.8158C17.2665 17.2224 18.4109 18.3668 19.8175 18.3668C21.2242 18.3668 22.3685 17.2224 22.3685 15.8158C22.3685 14.4092 21.2242 13.2648 19.8175 13.2648Z" fill="white"/>
<path d="M12.6743 16.3264C12.3925 16.3264 12.1641 16.0979 12.1641 15.8161C12.1641 11.5962 15.5972 8.16309 19.8171 8.16309C20.0989 8.16309 20.3273 8.39156 20.3273 8.67329C20.3273 8.95502 20.0989 9.18349 19.8171 9.18349C16.1599 9.18349 13.1845 12.1589 13.1845 15.8161C13.1845 16.0979 12.956 16.3264 12.6743 16.3264Z" fill="white"/>
<path d="M8.59272 16.3262C8.31099 16.3262 8.08252 16.0977 8.08252 15.816C8.08252 9.34548 13.3467 4.0813 19.8172 4.0813C20.0989 4.0813 20.3274 4.30977 20.3274 4.5915C20.3274 4.87324 20.0989 5.10171 19.8172 5.10171C13.9094 5.10171 9.10293 9.90814 9.10293 15.816C9.10293 16.0977 8.87446 16.3262 8.59272 16.3262Z" fill="white"/>
<path d="M4.51118 16.3265C4.22945 16.3265 4.00098 16.0981 4.00098 15.8163C4.00098 7.0952 11.0962 0 19.8173 0C20.099 0 20.3275 0.228469 20.3275 0.510204C20.3275 0.791939 20.099 1.02041 19.8173 1.02041C11.6588 1.02041 5.02138 7.65786 5.02138 15.8163C5.02138 16.0981 4.79292 16.3265 4.51118 16.3265Z" fill="white"/>
<path d="M19.8172 28.5712C19.7515 28.5712 19.6852 28.5586 19.622 28.5323C19.4314 28.4535 19.3071 28.2673 19.3071 28.061V18.8773C19.3071 18.5956 19.5356 18.3671 19.8173 18.3671C20.0991 18.3671 20.3275 18.5956 20.3275 18.8773V26.8293L30.8305 16.3263H22.8786C22.5968 16.3263 22.3684 16.0978 22.3684 15.8161C22.3684 15.5344 22.5968 15.3059 22.8786 15.3059H32.0622C32.2686 15.3059 32.4547 15.4302 32.5336 15.6208C32.6125 15.8115 32.569 16.0309 32.4229 16.1768L20.178 28.4217C20.0805 28.5194 19.95 28.5712 19.8172 28.5712Z" fill="white"/>
</g>
<defs>
<filter id="filter0_d_352_747" x="0.000976562" y="0" width="58" height="58" filterUnits="userSpaceOnUse" color-interpolation-filters="sRGB">
<feFlood flood-opacity="0" result="BackgroundImageFix"/>
<feColorMatrix in="SourceAlpha" type="matrix" values="0 0 0 0 0 0 0 0 0 0 0 0 0 0 0 0 0 0 127 0" result="hardAlpha"/>
<feOffset dy="4"/>
<feGaussianBlur stdDeviation="2"/>
<feComposite in2="hardAlpha" operator="out"/>
<feColorMatrix type="matrix" values="0 0 0 0 0 0 0 0 0 0 0 0 0 0 0 0 0 0 0.25 0"/>
<feBlend mode="normal" in2="BackgroundImageFix" result="effect1_dropShadow_352_747"/>
<feBlend mode="normal" in="SourceGraphic" in2="effect1_dropShadow_352_747" result="shape"/>
</filter>
</defs>
</svg>
