<svg width="28" height="27" viewBox="0 0 28 27" fill="none" xmlns="http://www.w3.org/2000/svg">
<path d="M5.18829 0C2.68668 0 0.64502 2.02222 0.64502 4.5V22.5C0.64502 24.9778 2.68668 27 5.18829 27H23.3614C25.863 27 27.9046 24.9778 27.9046 22.5V4.5C27.9046 2.02222 25.863 0 23.3614 0H5.18829ZM5.18829 1.28571H23.3614C25.1616 1.28571 26.6066 2.71693 26.6066 4.5V22.5C26.6066 24.2831 25.1616 25.7143 23.3614 25.7143H5.18829C3.38807 25.7143 1.9431 24.2831 1.9431 22.5V4.5C1.9431 2.71693 3.38807 1.28571 5.18829 1.28571ZM6.54214 5.78571L12.528 14.2094L6.48637 21.2143H8.10897L13.2607 15.2402L17.5048 21.2143H22.6566L16.085 11.9657L21.4143 5.78571H19.7917L15.3523 10.9349L11.6939 5.78571H6.54214ZM9.02674 7.07143H11.0157L20.1719 19.9286H18.183L9.02674 7.07143Z" fill="#535353"/>
</svg>
